<?xml version="1.0" encoding="UTF-8" standalone="no"?><!DOCTYPE svg PUBLIC "-//W3C//DTD SVG 1.1//EN" "http://www.w3.org/Graphics/SVG/1.1/DTD/svg11.dtd"><svg width="100%" height="100%" viewBox="0 0 512 512" version="1.1" xmlns="http://www.w3.org/2000/svg" xmlns:xlink="http://www.w3.org/1999/xlink" xml:space="preserve" style="fill-rule:evenodd;clip-rule:evenodd;stroke-linecap:round;stroke-linejoin:round;stroke-miterlimit:1.5;"><g><path d="M382.099,138.052l-12.024,76.48l-64.456,-64.456l76.48,-12.024Z" style="fill:none;stroke:#E00985;stroke-width:17px;"/><path d="M335.041,185.007l-116.096,116.097" style="fill:none;stroke:#E00985;stroke-width:17px;"/><path d="M221.102,298.506l-64.396,-2.53l-62.565,62.566l64.396,2.53l62.565,-62.566Z" style="fill:none;stroke:#E00985;stroke-width:17px;"/><path d="M221.538,298.942l2.53,64.396l-62.565,62.565l-2.53,-64.395l62.565,-62.566Z" style="fill:none;stroke:#E00985;stroke-width:17px;"/><path d="M189.417,329.677l-64.171,-0.157" style="fill:none;stroke:#E00985;stroke-width:17px;"/><path d="M189.965,330.224l0.156,64.171" style="fill:none;stroke:#E00985;stroke-width:17px;"/></g><g><path d="M381.992,392.276l-76.479,-12.024l64.455,-64.456l12.024,76.48Z" style="fill:none;stroke:#E00985;stroke-width:17px;"/><path d="M335.038,345.218l-116.097,-116.096" style="fill:none;stroke:#E00985;stroke-width:17px;"/><path d="M221.538,231.279l2.53,-64.395l-62.565,-62.566l-2.53,64.396l62.565,62.565Z" style="fill:none;stroke:#E00985;stroke-width:17px;"/><path d="M221.102,231.715l-64.396,2.53l-62.565,-62.565l64.396,-2.53l62.565,62.565Z" style="fill:none;stroke:#E00985;stroke-width:17px;"/><path d="M190.368,199.594l0.156,-64.171" style="fill:none;stroke:#E00985;stroke-width:17px;"/><path d="M189.82,200.142l-64.171,0.156" style="fill:none;stroke:#E00985;stroke-width:17px;"/></g><circle cx="257.533" cy="257.744" r="244.84" style="fill:none;stroke:#E00985;stroke-width:17px;"/></svg>
