<?xml version="1.0" encoding="UTF-8"?>
<svg width="22px" height="22px" viewBox="0 0 22 22" version="1.1" xmlns="http://www.w3.org/2000/svg" xmlns:xlink="http://www.w3.org/1999/xlink">
    <!-- Generator: Sketch 55.2 (78181) - https://sketchapp.com -->
    <title>Icon</title>
    <desc>Created with Sketch.</desc>
    <g id="Main-Design" stroke="none" stroke-width="1" fill="none" fill-rule="evenodd">
        <g id="Home" transform="translate(-70.000000, -649.000000)" fill="#FF4A73" fill-rule="nonzero">
            <g id="Group-11" transform="translate(-93.000000, -158.000000)">
                <g id="Group-10" transform="translate(149.000000, 793.000000)">
                    <path d="M25,23.0554564 L16.3472718,14.4027282 C15.8103009,13.8657573 14.9396991,13.8657573 14.4027282,14.4027282 C13.8657573,14.9396991 13.8657573,15.8103009 14.4027282,16.3472718 L23.0554564,25 L14.4027282,33.6527282 C13.8657573,34.1896991 13.8657573,35.0603009 14.4027282,35.5972718 C14.9396991,36.1342427 15.8103009,36.1342427 16.3472718,35.5972718 L25,26.9445436 L33.6527282,35.5972718 C34.1896991,36.1342427 35.0603009,36.1342427 35.5972718,35.5972718 C36.1342427,35.0603009 36.1342427,34.1896991 35.5972718,33.6527282 L26.9445436,25 L35.5972718,16.3472718 C36.1342427,15.8103009 36.1342427,14.9396991 35.5972718,14.4027282 C35.0603009,13.8657573 34.1896991,13.8657573 33.6527282,14.4027282 L25,23.0554564 Z" id="Icon"></path>
                </g>
            </g>
        </g>
    </g>
</svg>