<?xml version="1.0" encoding="UTF-8"?>
<svg width="30px" height="26px" viewBox="0 0 30 26" version="1.1" xmlns="http://www.w3.org/2000/svg" xmlns:xlink="http://www.w3.org/1999/xlink">
    <!-- Generator: Sketch 55.2 (78181) - https://sketchapp.com -->
    <title>love</title>
    <desc>Created with Sketch.</desc>
    <g id="Main-Design" stroke="none" stroke-width="1" fill="none" fill-rule="evenodd">
        <g id="Profile-Swipe" transform="translate(-279.000000, -648.000000)" fill="#FF4A73">
            <g id="Group-8" transform="translate(264.000000, 630.000000)">
                <path d="M42.2717253,20.4016179 C39.3961466,17.2130869 34.6955305,17.2092095 31.8539669,20.3628437 C30.4488843,21.9202737 30.0145385,22.8094951 30.0145385,22.8094951 C30.0145385,22.8094951 29.5357115,21.8698672 28.1777267,20.3628437 C25.3243886,17.1988697 20.6329304,17.2130869 17.75866,20.4016179 C14.8830813,23.5901488 14.8896227,28.323185 17.7233367,31.9576191 C19.794329,34.6162361 26.3723133,41.1018658 27.1925989,41.8191883 C29.2073356,43.5847064 30.6516663,43.7217086 32.7906886,41.8553775 C33.8961772,40.8924851 40.2164322,34.5477351 42.3070486,31.9576191 C45.0596498,28.5480753 45.1473039,23.5901488 42.2717253,20.4016179" id="love"></path>
            </g>
        </g>
    </g>
</svg>